<?xml version="1.0" encoding="UTF-8"?>
<svg width="124px" height="19px" viewBox="0 0 124 19" version="1.1" xmlns="http://www.w3.org/2000/svg" xmlns:xlink="http://www.w3.org/1999/xlink">
    <title>AmosBank</title>
    <g id="New-Templates" stroke="none" stroke-width="1" fill="none" fill-rule="evenodd">
        <g id="1.2_Transactions" transform="translate(-48.000000, -120.000000)" fill="#FFFFFF" fill-rule="nonzero">
            <path d="M51.864,138 L53.28,133.896 L59.904,133.896 L61.32,138 L64.896,138 L58.44,120.816 L54.744,120.816 L48.288,138 L51.864,138 Z M58.848,130.92 L54.336,130.92 L55.872,126.624 L56.496,124.536 L56.688,124.536 L57.312,126.624 L58.848,130.92 Z M69.672,138 L69.672,132.288 C69.672,131.792 69.728,131.328 69.84,130.896 C69.952,130.464 70.112,130.092 70.32,129.78 C70.528,129.468 70.784,129.22 71.088,129.036 C71.392,128.852 71.744,128.76 72.144,128.76 C73.52,128.76 74.208,129.56 74.208,131.16 L74.208,131.16 L74.208,138 L77.352,138 L77.352,132.288 C77.352,131.792 77.412,131.328 77.532,130.896 C77.652,130.464 77.82,130.092 78.036,129.78 C78.252,129.468 78.52,129.22 78.84,129.036 C79.16,128.852 79.528,128.76 79.944,128.76 C81.256,128.76 81.912,129.56 81.912,131.16 L81.912,131.16 L81.912,138 L85.056,138 L85.056,130.584 C85.056,129.896 84.968,129.26 84.792,128.676 C84.616,128.092 84.356,127.592 84.012,127.176 C83.668,126.76 83.232,126.436 82.704,126.204 C82.176,125.972 81.552,125.856 80.832,125.856 C79.872,125.856 79.056,126.068 78.384,126.492 C77.712,126.916 77.192,127.424 76.824,128.016 C76.568,127.408 76.136,126.896 75.528,126.48 C74.92,126.064 74.168,125.856 73.272,125.856 C72.504,125.856 71.804,126.032 71.172,126.384 C70.54,126.736 70.04,127.2 69.672,127.776 L69.672,127.776 L69.48,127.776 L69.48,126.24 L66.528,126.24 L66.528,138 L69.672,138 Z M93.216,138.384 C94.128,138.384 94.964,138.228 95.724,137.916 C96.484,137.604 97.14,137.172 97.692,136.62 C98.244,136.068 98.676,135.408 98.988,134.64 C99.3,133.872 99.456,133.032 99.456,132.12 C99.456,131.208 99.3,130.368 98.988,129.6 C98.676,128.832 98.244,128.172 97.692,127.62 C97.14,127.068 96.484,126.636 95.724,126.324 C94.964,126.012 94.128,125.856 93.216,125.856 C92.304,125.856 91.468,126.012 90.708,126.324 C89.948,126.636 89.292,127.068 88.74,127.62 C88.188,128.172 87.756,128.832 87.444,129.6 C87.132,130.368 86.976,131.208 86.976,132.12 C86.976,133.032 87.132,133.872 87.444,134.64 C87.756,135.408 88.188,136.068 88.74,136.62 C89.292,137.172 89.948,137.604 90.708,137.916 C91.468,138.228 92.304,138.384 93.216,138.384 Z M93.216,135.48 C92.8,135.48 92.408,135.404 92.04,135.252 C91.672,135.1 91.344,134.88 91.056,134.592 C90.768,134.304 90.54,133.952 90.372,133.536 C90.204,133.12 90.12,132.648 90.12,132.12 C90.12,131.592 90.204,131.12 90.372,130.704 C90.54,130.288 90.768,129.936 91.056,129.648 C91.344,129.36 91.672,129.14 92.04,128.988 C92.408,128.836 92.8,128.76 93.216,128.76 C93.616,128.76 94.004,128.836 94.38,128.988 C94.756,129.14 95.088,129.36 95.376,129.648 C95.664,129.936 95.892,130.288 96.06,130.704 C96.228,131.12 96.312,131.592 96.312,132.12 C96.312,132.648 96.228,133.12 96.06,133.536 C95.892,133.952 95.664,134.304 95.376,134.592 C95.088,134.88 94.756,135.1 94.38,135.252 C94.004,135.404 93.616,135.48 93.216,135.48 Z M106.128,138.384 C106.88,138.384 107.564,138.28 108.18,138.072 C108.796,137.864 109.324,137.58 109.764,137.22 C110.204,136.86 110.544,136.448 110.784,135.984 C111.024,135.52 111.144,135.032 111.144,134.52 C111.144,133.656 110.852,132.908 110.268,132.276 C109.684,131.644 108.792,131.184 107.592,130.896 L107.592,130.896 L105.792,130.464 C105.312,130.336 104.932,130.192 104.652,130.032 C104.372,129.872 104.232,129.656 104.232,129.384 C104.232,129.096 104.4,128.86 104.736,128.676 C105.072,128.492 105.464,128.4 105.912,128.4 C106.344,128.4 106.776,128.504 107.208,128.712 C107.64,128.92 107.968,129.256 108.192,129.72 L108.192,129.72 L110.904,128.616 C110.488,127.656 109.84,126.956 108.96,126.516 C108.08,126.076 107.08,125.856 105.96,125.856 C105.288,125.856 104.66,125.94 104.076,126.108 C103.492,126.276 102.984,126.516 102.552,126.828 C102.12,127.14 101.78,127.52 101.532,127.968 C101.284,128.416 101.16,128.928 101.16,129.504 C101.16,130.016 101.264,130.464 101.472,130.848 C101.68,131.232 101.944,131.56 102.264,131.832 C102.584,132.104 102.94,132.328 103.332,132.504 C103.724,132.68 104.104,132.808 104.472,132.888 L104.472,132.888 L106.128,133.248 C106.816,133.408 107.3,133.588 107.58,133.788 C107.86,133.988 108,134.248 108,134.568 C108,134.856 107.832,135.104 107.496,135.312 C107.16,135.52 106.704,135.624 106.128,135.624 C105.568,135.624 105.06,135.476 104.604,135.18 C104.148,134.884 103.784,134.432 103.512,133.824 L103.512,133.824 L100.704,135.024 C100.864,135.44 101.096,135.852 101.4,136.26 C101.704,136.668 102.076,137.028 102.516,137.34 C102.956,137.652 103.476,137.904 104.076,138.096 C104.676,138.288 105.36,138.384 106.128,138.384 Z M125.688,138 C126.472,138 127.204,137.888 127.884,137.664 C128.564,137.44 129.16,137.12 129.672,136.704 C130.184,136.288 130.588,135.788 130.884,135.204 C131.18,134.62 131.328,133.96 131.328,133.224 C131.328,132.216 131.06,131.372 130.524,130.692 C129.988,130.012 129.28,129.512 128.4,129.192 L128.4,129.192 L128.4,129 C129.056,128.68 129.604,128.212 130.044,127.596 C130.484,126.98 130.704,126.216 130.704,125.304 C130.704,124.68 130.568,124.096 130.296,123.552 C130.024,123.008 129.652,122.532 129.18,122.124 C128.708,121.716 128.152,121.396 127.512,121.164 C126.872,120.932 126.184,120.816 125.448,120.816 L125.448,120.816 L118.728,120.816 L118.728,138 L125.688,138 Z M125.208,127.824 L121.968,127.824 L121.968,123.72 L125.304,123.72 C126.008,123.72 126.56,123.92 126.96,124.32 C127.36,124.72 127.56,125.2 127.56,125.76 C127.56,126.32 127.356,126.804 126.948,127.212 C126.54,127.62 125.96,127.824 125.208,127.824 L125.208,127.824 Z M125.568,135.024 L121.968,135.024 L121.968,130.608 L125.472,130.608 C126.336,130.608 126.988,130.82 127.428,131.244 C127.868,131.668 128.088,132.2 128.088,132.84 C128.088,133.48 127.872,134.004 127.44,134.412 C127.008,134.82 126.384,135.024 125.568,135.024 L125.568,135.024 Z M137.16,138.384 C137.976,138.384 138.644,138.224 139.164,137.904 C139.684,137.584 140.128,137.2 140.496,136.752 L140.496,136.752 L140.688,136.752 L140.688,138 L143.784,138 L143.784,130.944 C143.784,129.264 143.304,127.996 142.344,127.14 C141.384,126.284 139.992,125.856 138.168,125.856 C136.008,125.856 134.304,126.64 133.056,128.208 L133.056,128.208 L135.336,129.768 C136.088,128.856 137.008,128.4 138.096,128.4 C138.832,128.4 139.448,128.604 139.944,129.012 C140.44,129.42 140.688,129.936 140.688,130.56 L140.688,130.56 L140.688,130.92 C140.368,130.792 139.96,130.668 139.464,130.548 C138.968,130.428 138.336,130.368 137.568,130.368 C136.88,130.368 136.244,130.46 135.66,130.644 C135.076,130.828 134.568,131.096 134.136,131.448 C133.704,131.8 133.368,132.22 133.128,132.708 C132.888,133.196 132.768,133.744 132.768,134.352 C132.768,134.944 132.88,135.488 133.104,135.984 C133.328,136.48 133.64,136.904 134.04,137.256 C134.44,137.608 134.908,137.884 135.444,138.084 C135.98,138.284 136.552,138.384 137.16,138.384 Z M137.856,135.936 C137.344,135.936 136.892,135.792 136.5,135.504 C136.108,135.216 135.912,134.832 135.912,134.352 C135.912,133.872 136.116,133.468 136.524,133.14 C136.932,132.812 137.512,132.648 138.264,132.648 C138.728,132.648 139.156,132.7 139.548,132.804 C139.94,132.908 140.32,133.048 140.688,133.224 C140.688,133.576 140.62,133.916 140.484,134.244 C140.348,134.572 140.156,134.86 139.908,135.108 C139.66,135.356 139.36,135.556 139.008,135.708 C138.656,135.86 138.272,135.936 137.856,135.936 Z M149.424,138 L149.424,132.24 C149.424,131.76 149.484,131.308 149.604,130.884 C149.724,130.46 149.9,130.092 150.132,129.78 C150.364,129.468 150.644,129.22 150.972,129.036 C151.3,128.852 151.68,128.76 152.112,128.76 C152.832,128.76 153.38,128.964 153.756,129.372 C154.132,129.78 154.32,130.408 154.32,131.256 L154.32,131.256 L154.32,138 L157.464,138 L157.464,130.872 C157.464,130.12 157.372,129.436 157.188,128.82 C157.004,128.204 156.732,127.676 156.372,127.236 C156.012,126.796 155.552,126.456 154.992,126.216 C154.432,125.976 153.784,125.856 153.048,125.856 C152.248,125.856 151.536,126.028 150.912,126.372 C150.288,126.716 149.792,127.184 149.424,127.776 L149.424,127.776 L149.232,127.776 L149.232,126.24 L146.28,126.24 L146.28,138 L149.424,138 Z M163.2,138 L163.2,134.208 L164.592,132.84 L167.808,138 L171.528,138 L171.528,137.808 L166.8,130.68 L171.168,126.432 L171.168,126.24 L167.28,126.24 L163.344,130.176 L163.2,130.176 L163.2,120.816 L160.056,120.816 L160.056,138 L163.2,138 Z" id="AmosBank"></path>
        </g>
    </g>
</svg>